<svg width="28" height="22" viewBox="0 0 28 22" fill="none" xmlns="http://www.w3.org/2000/svg">
<path d="M23.6928 1.8116C21.8913 0.963618 19.9365 0.346903 17.905 0C17.675 0.462537 17.3684 1.04071 17.1767 1.54179C15.0302 1.23343 12.8838 1.23343 10.7756 1.54179C10.584 1.04071 10.2773 0.462537 10.009 0C7.97751 0.346903 6.06101 0.963618 4.22117 1.8116C0.618144 7.36205 -0.378438 12.7583 0.119853 18.116C2.53465 19.9276 4.87278 21.0454 7.21091 21.7778C7.78586 21.0069 8.28415 20.1589 8.74411 19.2724C7.90085 18.964 7.09592 18.5786 6.36765 18.116C6.5593 17.9618 6.75095 17.8077 6.9426 17.6535C11.5422 19.812 16.5251 19.812 21.0864 17.6535C21.278 17.8077 21.4697 17.9618 21.6613 18.116C20.8947 18.5786 20.0898 18.964 19.2849 19.2724C19.7065 20.1589 20.2431 21.0069 20.8181 21.7778C23.1179 21.0454 25.4943 19.9662 27.9091 18.116C28.4074 11.9103 26.8359 6.55261 23.6928 1.8116ZM9.31907 14.8012C7.93918 14.8012 6.78928 13.4907 6.78928 11.9103C6.78928 10.33 7.90085 9.01947 9.31907 9.01947C10.7373 9.01947 11.8488 10.33 11.8488 11.9103C11.8488 13.5292 10.7373 14.8012 9.31907 14.8012ZM18.6333 14.8012C17.2534 14.8012 16.1035 13.4907 16.1035 11.9103C16.1035 10.33 17.2151 9.01947 18.6333 9.01947C20.0515 9.01947 21.1631 10.33 21.1631 11.9103C21.1247 13.5292 20.0132 14.8012 18.6333 14.8012Z" fill="#333333"/>
</svg>
